<svg height="1406" width="720" xmlns="http://www.w3.org/2000/svg">
<rect height="1406" fill="#555" width="720"></rect>
<text fill="#7f7" font-family="Courier New" font-size="12" xml:space="preserve">
<tspan x="10" y="26">14 megabytes installed</tspan>
<tspan x="10" y="42"></tspan>
<tspan x="10" y="58">node_modules</tspan>
<tspan x="10" y="74">└─┬ jsdoc-to-markdown@3.0.0 </tspan>
<tspan x="10" y="90">  ├─┬ array-back@1.0.4 </tspan>
<tspan x="10" y="106">  │ └── typical@2.6.0 </tspan>
<tspan x="10" y="122">  ├─┬ command-line-tool@0.7.0 </tspan>
<tspan x="10" y="138">  │ ├── ansi-escape-sequences@3.0.0 </tspan>
<tspan x="10" y="154">  │ ├─┬ command-line-args@4.0.2 </tspan>
<tspan x="10" y="170">  │ │ └── find-replace@1.0.3 </tspan>
<tspan x="10" y="186">  │ └─┬ command-line-usage@4.0.0 </tspan>
<tspan x="10" y="202">  │   └─┬ table-layout@0.4.0 </tspan>
<tspan x="10" y="218">  │     ├── deep-extend@0.4.1 </tspan>
<tspan x="10" y="234">  │     ├── lodash.padend@4.6.1 </tspan>
<tspan x="10" y="250">  │     └─┬ wordwrapjs@2.0.0 </tspan>
<tspan x="10" y="266">  │       └── feature-detect-es6@1.3.1 </tspan>
<tspan x="10" y="282">  ├── config-master@3.1.0 </tspan>
<tspan x="10" y="298">  ├─┬ dmd@3.0.3 </tspan>
<tspan x="10" y="314">  │ ├─┬ cache-point@0.4.0 </tspan>
<tspan x="10" y="330">  │ │ └─┬ mkdirp@0.5.1 </tspan>
<tspan x="10" y="346">  │ │   └── minimist@0.0.8 </tspan>
<tspan x="10" y="362">  │ ├── common-sequence@1.0.2 </tspan>
<tspan x="10" y="378">  │ ├─┬ file-set@1.1.1 </tspan>
<tspan x="10" y="394">  │ │ └─┬ glob@7.1.1 </tspan>
<tspan x="10" y="410">  │ │   ├── fs.realpath@1.0.0 </tspan>
<tspan x="10" y="426">  │ │   ├─┬ inflight@1.0.6 </tspan>
<tspan x="10" y="442">  │ │   │ └── wrappy@1.0.2 </tspan>
<tspan x="10" y="458">  │ │   ├── inherits@2.0.3 </tspan>
<tspan x="10" y="474">  │ │   ├─┬ minimatch@3.0.3 </tspan>
<tspan x="10" y="490">  │ │   │ └─┬ brace-expansion@1.1.7 </tspan>
<tspan x="10" y="506">  │ │   │   ├── balanced-match@0.4.2 </tspan>
<tspan x="10" y="522">  │ │   │   └── concat-map@0.0.1 </tspan>
<tspan x="10" y="538">  │ │   ├── once@1.4.0 </tspan>
<tspan x="10" y="554">  │ │   └── path-is-absolute@1.0.1 </tspan>
<tspan x="10" y="570">  │ ├─┬ handlebars@3.0.3 </tspan>
<tspan x="10" y="586">  │ │ ├─┬ optimist@0.6.1 </tspan>
<tspan x="10" y="602">  │ │ │ └── wordwrap@0.0.3 </tspan>
<tspan x="10" y="618">  │ │ ├─┬ source-map@0.1.43 </tspan>
<tspan x="10" y="634">  │ │ │ └── amdefine@1.0.1 </tspan>
<tspan x="10" y="650">  │ │ └─┬ uglify-js@2.3.6 </tspan>
<tspan x="10" y="666">  │ │   ├── async@0.2.10 </tspan>
<tspan x="10" y="682">  │ │   └── optimist@0.3.7 </tspan>
<tspan x="10" y="698">  │ ├── marked@0.3.6 </tspan>
<tspan x="10" y="714">  │ ├── object-get@2.1.0 </tspan>
<tspan x="10" y="730">  │ ├── reduce-flatten@1.0.1 </tspan>
<tspan x="10" y="746">  │ ├── reduce-unique@1.0.0 </tspan>
<tspan x="10" y="762">  │ ├── reduce-without@1.0.1 </tspan>
<tspan x="10" y="778">  │ └── test-value@2.1.0 </tspan>
<tspan x="10" y="794">  ├─┬ jsdoc-api@3.0.0 </tspan>
<tspan x="10" y="810">  │ ├─┬ collect-all@1.0.2 </tspan>
<tspan x="10" y="826">  │ │ ├── stream-connect@1.0.2 </tspan>
<tspan x="10" y="842">  │ │ └── stream-via@1.0.3 </tspan>
<tspan x="10" y="858">  │ ├── fs-then-native@2.0.0 </tspan>
<tspan x="10" y="874">  │ ├─┬ jsdoc-75lb@3.6.0 </tspan>
<tspan x="10" y="890">  │ │ ├── bluebird@3.4.7 </tspan>
<tspan x="10" y="906">  │ │ ├─┬ catharsis@0.8.8 </tspan>
<tspan x="10" y="922">  │ │ │ └─┬ underscore-contrib@0.3.0 </tspan>
<tspan x="10" y="938">  │ │ │   └── underscore@1.6.0 </tspan>
<tspan x="10" y="954">  │ │ ├── escape-string-regexp@1.0.5 </tspan>
<tspan x="10" y="970">  │ │ ├─┬ espree@3.1.7 </tspan>
<tspan x="10" y="986">  │ │ │ ├── acorn@3.3.0 </tspan>
<tspan x="10" y="1002">  │ │ │ └── acorn-jsx@3.0.1 </tspan>
<tspan x="10" y="1018">  │ │ ├── js2xmlparser@1.0.0 </tspan>
<tspan x="10" y="1034">  │ │ ├─┬ klaw@1.3.1 </tspan>
<tspan x="10" y="1050">  │ │ │ └── graceful-fs@4.1.11 </tspan>
<tspan x="10" y="1066">  │ │ ├─┬ requizzle@0.2.1 </tspan>
<tspan x="10" y="1082">  │ │ │ └── underscore@1.6.0 </tspan>
<tspan x="10" y="1098">  │ │ ├── strip-json-comments@2.0.1 </tspan>
<tspan x="10" y="1114">  │ │ ├── taffydb@2.6.2 </tspan>
<tspan x="10" y="1130">  │ │ └── underscore@1.8.3 </tspan>
<tspan x="10" y="1146">  │ ├── object-to-spawn-args@1.1.0 </tspan>
<tspan x="10" y="1162">  │ └── temp-path@1.0.0 </tspan>
<tspan x="10" y="1178">  ├─┬ jsdoc-parse@3.0.0 </tspan>
<tspan x="10" y="1194">  │ ├── lodash.omit@4.5.0 </tspan>
<tspan x="10" y="1210">  │ ├── lodash.pick@4.4.0 </tspan>
<tspan x="10" y="1226">  │ ├─┬ reduce-extract@1.0.0 </tspan>
<tspan x="10" y="1242">  │ │ └── test-value@1.1.0 </tspan>
<tspan x="10" y="1258">  │ └── sort-array@1.1.1 </tspan>
<tspan x="10" y="1274">  ├─┬ jsdoc2md-stats@2.0.1 </tspan>
<tspan x="10" y="1290">  │ └─┬ app-usage-stats@0.5.1 </tspan>
<tspan x="10" y="1306">  │   ├── home-path@1.0.5 </tspan>
<tspan x="10" y="1322">  │   └─┬ usage-stats@0.9.0 </tspan>
<tspan x="10" y="1338">  │     ├─┬ req-then@0.5.1 </tspan>
<tspan x="10" y="1354">  │     │ └── defer-promise@1.0.1 </tspan>
<tspan x="10" y="1370">  │     └── uuid@3.0.1 </tspan>
<tspan x="10" y="1386">  └── walk-back@2.0.1</tspan>
</text>
</svg>
